<svg width="40" height="40" viewBox="0 0 40 40" fill="none" xmlns="http://www.w3.org/2000/svg">
<g filter="url(#filter0_ii_35_508)">
<g clip-path="url(#clip0_35_508)">
<path d="M0 0H40V21.1409V25.5805V27.3673V29.3646V29.3915V30.3351V40H0V29.3878V27.9508V21.0276V0Z" fill="url(#paint0_linear_35_508)"/>
<path d="M0.238407 29.2277C0.364386 32.2948 2.44516 34.0116 5.38895 34.2466C6.73742 34.3543 7.03344 34.0152 7.64035 32.8315C7.75992 32.5984 7.8882 32.3443 8.00676 32.1101L9.59223 28.9983C9.96668 28.253 10.31 27.2744 10.9574 26.7246C11.2483 26.4775 11.765 26.4557 12.129 26.4194C13.0852 26.3931 14.0723 26.4064 15.0317 26.4068L20.6026 26.4079L25.4106 26.4054C26.4296 26.4052 27.6085 26.344 28.6043 26.5191C29.4036 26.6597 29.8203 27.8238 30.1502 28.4555C30.9904 30.1048 31.7992 31.8218 32.6985 33.4339C33.0307 34.0294 33.613 34.3573 34.2679 34.2723C36.9483 34.0794 38.8946 33.0964 39.582 30.3634C39.7719 30.2036 39.716 30.0669 39.8074 29.8744C39.9543 30.1028 39.8227 30.1219 39.9086 30.3198L40 30.3351V40H0V29.3878L0.074627 29.0549C0.0914031 29.1794 0.0756305 29.2386 0.148135 29.3146C0.14759 29.2086 0.152252 29.1645 0.168588 29.0597L0.238407 29.2277Z" fill="white" fill-opacity="0.5"/>
<path d="M0 0H40V21.1409L39.9906 21.1258C39.8984 20.9785 39.8852 20.8427 39.8605 20.6712C39.2551 16.4511 38.1273 12.0176 35.8236 8.39172C35.7014 8.19937 35.0989 7.89644 34.8863 7.78492C34.588 6.8475 33.7879 6.56289 32.9172 6.34375C31.9037 6.08871 30.7032 5.96328 29.6835 6.24699C29.5802 6.50836 29.5459 6.7698 29.5164 7.04613C29.1071 6.96633 28.6175 6.95371 28.1942 6.90594C26.1182 6.67168 23.9649 6.48746 21.8768 6.42961C19.3632 6.37371 16.8483 6.4432 14.3415 6.63785C13.082 6.72836 11.8101 6.92156 10.5177 7.01918C10.5064 6.49801 10.3099 6.15035 9.73309 6.10867C8.41606 6.01352 6.8175 6.21215 5.68254 6.93172C5.36461 7.13332 5.1875 7.54977 5.13781 7.90656C4.84922 7.95969 4.56484 8.01074 4.3452 8.21976C3.91188 8.63215 3.59692 9.29527 3.33105 9.83051C2.1813 12.1696 1.3176 14.6386 0.758633 17.1843C0.494539 18.3907 0.280507 19.6277 0.0948219 20.8484C0.0851219 20.9122 0.039923 20.9782 0 21.0276V0Z" fill="#FBFFEC" fill-opacity="0.5"/>
<path d="M14.0535 18.4522C15.3555 18.2607 16.5643 19.1663 16.7464 20.4697C16.9285 21.773 16.0141 22.9752 14.7095 23.1479C13.4181 23.3187 12.2309 22.4157 12.0506 21.1256C11.8704 19.8356 12.7648 18.6418 14.0535 18.4522Z" fill="white"/>
<path d="M25.2856 18.4496C26.5771 18.2717 27.7698 19.1702 27.955 20.4606C28.1403 21.7511 27.2485 22.9488 25.9591 23.1414C24.6594 23.3355 23.4498 22.435 23.2631 21.1342C23.0764 19.8333 23.9837 18.6289 25.2856 18.4496Z" fill="white"/>
<path d="M5.99988 13.2487C7.01047 13.21 7.36641 13.6751 7.89696 14.4125C7.59578 14.8633 7.39086 15.112 6.93492 15.402C6.4502 15.5641 5.94367 15.6347 5.47067 15.4031C5.21289 14.9404 5.0552 14.2174 5.28527 13.7056C5.41746 13.4116 5.7132 13.3347 5.99988 13.2487Z" fill="white"/>
<path d="M8.35816 14.9569C8.53663 14.9532 8.73113 15.1052 8.87382 15.2206C9.42394 15.6655 9.82831 16.7007 9.35347 17.3175C9.16589 17.5612 8.85105 17.5613 8.56515 17.5801C8.33574 17.5815 8.10656 17.5663 7.87933 17.5345C7.14203 17.4347 7.21929 16.8633 7.29308 16.246C7.36046 15.6819 7.89667 15.2522 8.35816 14.9569Z" fill="white"/>
<path d="M8.08441 11.2176C9.01344 11.1288 9.72594 11.305 9.53672 12.4258C9.43238 13.0438 9.13183 13.3657 8.64324 13.7122C8.55816 13.7747 8.53633 13.7804 8.43578 13.8142C7.67933 13.7365 6.91926 12.2746 7.33863 11.6251C7.52668 11.3339 7.78777 11.2945 8.08441 11.2176Z" fill="white"/>
<path d="M10.6472 13.2573C11.7179 13.2656 11.6565 14.0079 11.5398 14.8456C11.5097 15.0621 11.4287 15.239 11.3398 15.4352C10.8352 15.5673 10.6028 15.593 10.0872 15.4756C9.57086 15.262 9.23203 14.8581 8.91071 14.4223C9.38094 13.6787 9.72821 13.3402 10.6472 13.2573Z" fill="white"/>
<path d="M33.0304 12.837C33.6676 12.7439 34.2603 13.1832 34.3564 13.82C34.4526 14.4568 34.016 15.0515 33.3797 15.1506C32.7391 15.2504 32.1396 14.8103 32.0428 14.1693C31.9461 13.5283 32.3889 12.9308 33.0304 12.837Z" fill="white"/>
<path d="M28.2722 12.8314C28.6915 12.7845 29.1036 12.967 29.3505 13.309C29.5974 13.6511 29.641 14.0996 29.4645 14.4828C29.288 14.866 28.9188 15.1244 28.4983 15.159C28.1201 15.1902 27.7502 15.0359 27.5064 14.7451C27.2625 14.4543 27.1749 14.0633 27.2713 13.6963C27.3942 13.2288 27.7919 12.8851 28.2722 12.8314Z" fill="white"/>
<path d="M30.6374 15.251C31.2595 15.1568 31.843 15.5767 31.9513 16.1964C32.0596 16.8162 31.6531 17.4091 31.0359 17.5314C30.624 17.6131 30.2002 17.4653 29.9284 17.1453C29.6565 16.8252 29.5792 16.3831 29.7265 15.9899C29.8736 15.5966 30.2222 15.3138 30.6374 15.251Z" fill="white"/>
<path d="M30.7023 10.4458C31.3297 10.3884 31.8878 10.8435 31.9577 11.4697C32.0277 12.0959 31.5838 12.663 30.9591 12.7454C30.5438 12.8002 30.1313 12.6262 29.8806 12.2906C29.6299 11.9549 29.5802 11.51 29.7507 11.1273C29.9211 10.7447 30.2851 10.484 30.7023 10.4458Z" fill="white"/>
</g>
<rect x="0.25" y="0.25" width="39.5" height="39.5" rx="19.75" stroke="white" stroke-opacity="0.6" stroke-width="0.5"/>
</g>
<defs>
<filter id="filter0_ii_35_508" x="0" y="-1" width="40" height="43" filterUnits="userSpaceOnUse" color-interpolation-filters="sRGB">
<feFlood flood-opacity="0" result="BackgroundImageFix"/>
<feBlend mode="normal" in="SourceGraphic" in2="BackgroundImageFix" result="shape"/>
<feColorMatrix in="SourceAlpha" type="matrix" values="0 0 0 0 0 0 0 0 0 0 0 0 0 0 0 0 0 0 127 0" result="hardAlpha"/>
<feOffset dy="2"/>
<feGaussianBlur stdDeviation="1.25"/>
<feComposite in2="hardAlpha" operator="arithmetic" k2="-1" k3="1"/>
<feColorMatrix type="matrix" values="0 0 0 0 0.34144 0 0 0 0 0.222259 0 0 0 0 0.153259 0 0 0 0.25 0"/>
<feBlend mode="normal" in2="shape" result="effect1_innerShadow_35_508"/>
<feColorMatrix in="SourceAlpha" type="matrix" values="0 0 0 0 0 0 0 0 0 0 0 0 0 0 0 0 0 0 127 0" result="hardAlpha"/>
<feOffset dy="-1"/>
<feGaussianBlur stdDeviation="3.15"/>
<feComposite in2="hardAlpha" operator="arithmetic" k2="-1" k3="1"/>
<feColorMatrix type="matrix" values="0 0 0 0 0 0 0 0 0 0 0 0 0 0 0 0 0 0 0.1 0"/>
<feBlend mode="normal" in2="effect1_innerShadow_35_508" result="effect2_innerShadow_35_508"/>
</filter>
<linearGradient id="paint0_linear_35_508" x1="20" y1="0" x2="20" y2="40" gradientUnits="userSpaceOnUse">
<stop/>
<stop offset="1" stop-color="#AD9000"/>
</linearGradient>
<clipPath id="clip0_35_508">
<rect width="40" height="40" rx="20" fill="white"/>
</clipPath>
</defs>
</svg>
